<?xml version="1.0" encoding="UTF-8"?>
<svg id="Layer_1" xmlns="http://www.w3.org/2000/svg" version="1.1" viewBox="0 0 273.3 175.3">
  <!-- Generator: Adobe Illustrator 29.2.1, SVG Export Plug-In . SVG Version: 2.1.0 Build 116)  -->
  <defs>
    <style>
      .st0 {
        fill: #fff;
      }

      .st1 {
        fill: none;
      }

      .st2 {
        fill: #231f20;
      }

      .st3 {
        fill: #a8b8be;
      }

      .st4 {
        fill: #f16682;
      }
    </style>
  </defs>
  <g>
    <path class="st4" d="M58.1,53.9c.9-1,3.4-3.2,5.8-5,2.8-2.1,4.5-3,6.3-3.4,2-.5,4.3,0,5.8,2.1,1.2,1.6,1.5,3.8,0,6.3h0c2.7-1,5.4-.3,7.2,2.1,1.4,1.9,1.6,4.1,1,6.1-.7,2.1-2.6,4.5-6.6,7.4-2.5,1.8-4.3,2.9-5.4,3.5l-14.1-19.1ZM68.3,57.3l1.1-.8c2.4-1.7,2.9-3.2,2-4.4-.8-1.1-2.2-1.1-4,.2-1,.7-1.4,1.1-1.7,1.5l2.6,3.5ZM74.5,65.6c.4-.2.9-.6,1.7-1.2,1.8-1.3,2.8-3.1,1.5-4.8-1.2-1.6-3.2-1.1-5.2.4l-1.3,1,3.3,4.5Z"/>
    <path class="st4" d="M81.3,37.9c1.5-1,3.8-2.5,6.9-4,3.4-1.7,5.9-2.2,8-1.8,1.8.4,3.4,1.6,4.4,3.7,1.4,2.9.1,5.8-1,7h0c1.6,0,3.1,1.1,4.5,2.7,1.8,1.9,4,4.7,4.8,5.4l-5.8,2.8c-.6-.5-1.9-1.7-4-4.2-1.9-2.3-3-2.4-4.9-1.5l-1,.5,4,8.1-5.6,2.7-10.5-21.4ZM91.4,44.2l1.7-.8c2.2-1.1,3.1-2.7,2.3-4.3-.8-1.6-2.4-1.9-4.3-1-1.3.6-1.8,1-2.1,1.2l2.4,5Z"/>
    <path class="st4" d="M118.3,41.8v6.1c.1,0-6.3,1.7-6.3,1.7l.6-25.2,8.3-2.2,13.6,21.4-6.8,1.8-3.1-5.3-6.3,1.7ZM122.4,35.6l-2.3-3.8c-.7-1.2-1.6-2.8-2.4-4h0c0,1.5.1,3.2.1,4.7v4.4c0,0,4.6-1.2,4.6-1.2Z"/>
    <path class="st4" d="M150.9,42.2l-2.2-3.8c-.9-1.5-1.5-2.7-2.3-4h0c-.3,1.4-.8,2.6-1.3,4.2l-1.4,4.2-7.4.6,6.1-12.7-7.8-11.4,7.4-.6,2,3.7c.8,1.4,1.3,2.5,2,3.9h0c.4-1.7.7-2.7,1.1-4.1l1.2-4,7.4-.6-5.8,12.2,8.2,11.9-7.5.6Z"/>
    <path class="st4" d="M179,33.2l-9.1-.6-.3,4.1,10.2.7-.4,5.4-16.5-1.1,1.6-24.1,16,1-.3,5.4-9.7-.6-.2,3.7,9.1.6-.3,5.4Z"/>
    <path class="st4" d="M184.6,43.4l5.6-23.5,7.7,1.8,2,7.7c.8,3,1.4,6.5,1.7,9.8h0c.4-3.6,1.1-6.4,1.9-9.6l1.5-6.1,5.7,1.4-5.6,23.5-6.7-1.6-2.1-8.7c-.7-3.1-1.5-6.6-2-10.1h-.1c-.7,3.6-1.5,7-2.3,10.6l-1.5,6.4-5.7-1.4Z"/>
  </g>
  <g>
    <path class="st1" d="M120.3,72c-3,19.4-33.8,26.2-45.5,21.3-3.2,2.2-6.3,4.3-9.5,6.4,20.3,17.7,56.3,35.4,88.5,36.8,4.2-7.9,17.2-16,27.6-19h-.1c10.4-2.9,24,.8,31.3,6.2h-.1c4-2,7.6-4,11.2-6-7.9-7.9-13.3-16.9-15.7-26.1-26.3,6.3-72.9,5.5-87.7-19.5Z"/>
    <path class="st1" d="M212.6,123.6c-13.5,6.5-29.6,11.6-49.6,12.7,20.1-1.2,36.2-6.2,49.6-12.7Z"/>
    <path class="st4" d="M181.3,117.4h.1c-10.4,3-23.4,11.1-27.6,19,3,.1,6.1,0,9.1,0,20-1.2,36.2-6.2,49.6-12.7-7.3-5.4-20.9-9.1-31.3-6.2Z"/>
    <path class="st3" d="M145.5,50.9h.1c-5.3.3-11.1,1.6-17.2,3.6-5,1.6-10.2,3.8-15.5,6.3-17.2,8.2-35.4,20.4-50.8,32.6-.7.5-1.4,1-2,1.6-.7-.7-1.5-1.4-2.3-1.9-26.9-22.3-44.8-16.5-44.8-16.5,7.7.8,18.4,6.1,29.7,13.8,4,2.7,8,5.7,11.9,9-2.8,2.3-5.5,4.7-8,6.9-8.8,7.8-34.5,22.6-34.5,22.6,4.3-.2,13.4-3.3,30.4-13.9,5.4-3.4,11.2-7.2,17.1-11.3.3.3.7.6,1,1,22,19.6,64.6,42.7,100.1,40.6,32.6-1.9,49.4-13.7,62.4-22.4,1.1-.7,2.2-1.5,3.3-2.2,17.8-12.2,30.4-24.4,30.9-24.9-20.4-15-60.5-47.8-112-44.6ZM212.5,123.5h.1c-13.5,6.6-29.5,11.7-49.6,12.8-3,0-6.1.2-9.1,0-32.2-1.4-68.2-19.1-88.5-36.8,3.2-2.1,6.3-4.2,9.5-6.4,11.7,5,42.5-1.9,45.5-21.3,14.8,25,61.4,25.8,87.7,19.5,2.4,9.2,7.8,18.1,15.7,26.1-3.6,2-7.2,4-11.2,5.9ZM228.9,103.9c-4.3.1-7.9-3.3-8-7.6s3.3-7.9,7.6-8,7.9,3.3,8,7.6-3.3,7.9-7.6,8Z"/>
    <path class="st0" d="M228.5,88.3c-4.3.1-7.7,3.7-7.6,8s3.7,7.7,8,7.6c4.3-.1,7.7-3.7,7.6-8s-3.7-7.7-8-7.6ZM228.9,101.6c-3,0-5.5-2.3-5.6-5.3,0-3,2.3-5.5,5.3-5.6,3,0,5.5,2.3,5.6,5.3s-2.3,5.5-5.3,5.6Z"/>
    <path class="st4" d="M228.6,90.6c-3,0-5.4,2.6-5.3,5.6,0,3,2.6,5.4,5.6,5.3s5.4-2.6,5.3-5.6-2.6-5.4-5.6-5.3ZM228.8,99.9c-2.1,0-3.8-1.6-3.9-3.7s1.6-3.8,3.7-3.9c2.1,0,3.8,1.6,3.9,3.7s-1.6,3.8-3.7,3.9Z"/>
    <path class="st2" d="M228.6,92.3c-2.1,0-3.7,1.8-3.7,3.9s1.8,3.7,3.9,3.7,3.7-1.8,3.7-3.9-1.8-3.7-3.9-3.7Z"/>
  </g>
</svg>