<?xml version="1.0" encoding="UTF-8"?>
<svg id="Layer_1" xmlns="http://www.w3.org/2000/svg" version="1.1" viewBox="0 0 273.3 175.3">
  <!-- Generator: Adobe Illustrator 29.2.1, SVG Export Plug-In . SVG Version: 2.1.0 Build 116)  -->
  <defs>
    <style>
      .st0 {
        fill: #f0657e;
      }

      .st1 {
        fill: #231f20;
      }

      .st2 {
        fill: #fff;
      }

      .st3 {
        fill: none;
      }

      .st4 {
        fill: #a7b6bf;
      }

      .st5 {
        fill: #f16682;
      }
    </style>
  </defs>
  <g>
    <g>
      <path class="st5" d="M58.4,45.2c.9-1,3.4-3.2,5.8-5,2.8-2.1,4.5-3,6.3-3.4,2-.5,4.3,0,5.8,2.1,1.2,1.6,1.5,3.8,0,6.3h0c2.7-1,5.4-.3,7.2,2.1,1.4,1.9,1.6,4.1,1,6-.7,2.1-2.6,4.4-6.6,7.4-2.5,1.8-4.3,2.9-5.4,3.5l-14.1-19ZM68.7,48.5l1.1-.8c2.4-1.7,2.9-3.2,2-4.4-.8-1.1-2.2-1.1-4,.2-1,.7-1.4,1.1-1.7,1.5l2.6,3.5ZM74.8,56.8c.4-.2.9-.6,1.7-1.1,1.8-1.3,2.7-3.1,1.5-4.8-1.2-1.6-3.1-1.1-5.2.4l-1.3,1,3.3,4.5Z"/>
      <path class="st5" d="M81.6,29.2c1.5-1,3.8-2.5,6.9-4,3.4-1.6,5.9-2.2,8-1.8,1.8.4,3.3,1.5,4.4,3.7,1.4,2.9.1,5.8-1,7h0c1.6,0,3.1,1.1,4.5,2.7,1.8,1.9,4,4.7,4.8,5.4l-5.7,2.8c-.6-.5-1.9-1.7-4-4.2-1.9-2.3-3-2.4-4.8-1.5l-1,.5,3.9,8.1-5.6,2.7-10.5-21.4ZM91.6,35.5l1.7-.8c2.2-1.1,3.1-2.7,2.3-4.3-.8-1.6-2.3-1.9-4.3-1-1.3.6-1.8,1-2.1,1.2l2.4,5Z"/>
      <path class="st5" d="M118.5,33.2v6c.1,0-6.3,1.7-6.3,1.7l.6-25.1,8.3-2.2,13.5,21.4-6.7,1.8-3.1-5.2-6.3,1.7ZM122.6,27l-2.3-3.8c-.7-1.2-1.6-2.8-2.4-4h0c0,1.5.1,3.2.1,4.7v4.4c0,0,4.6-1.2,4.6-1.2Z"/>
      <path class="st5" d="M151,33.5l-2.1-3.8c-.9-1.5-1.5-2.6-2.3-3.9h0c-.3,1.4-.8,2.6-1.3,4.2l-1.4,4.2-7.4.6,6.1-12.7-7.8-11.3,7.4-.6,2,3.6c.8,1.4,1.3,2.5,2,3.9h0c.4-1.7.7-2.7,1.1-4.1l1.2-3.9,7.4-.6-5.8,12.2,8.2,11.8-7.5.6Z"/>
      <path class="st5" d="M179,24.5l-9.1-.6-.3,4.1,10.2.7-.3,5.4-16.4-1.1,1.5-24.1,15.9,1-.3,5.4-9.7-.6-.2,3.7,9.1.6-.3,5.4Z"/>
      <path class="st5" d="M184.6,34.7l5.6-23.5,7.7,1.8,2,7.6c.8,2.9,1.4,6.5,1.7,9.8h0c.4-3.6,1.1-6.4,1.9-9.6l1.5-6.1,5.7,1.3-5.6,23.5-6.7-1.6-2.1-8.7c-.7-3-1.5-6.6-2-10.1h-.1c-.7,3.6-1.5,7-2.3,10.5l-1.5,6.3-5.7-1.3Z"/>
    </g>
    <g>
      <path class="st1" d="M111.6,137.2l-6.6,17-2.9-1.1,6.6-17,2.9,1.1Z"/>
      <path class="st1" d="M112.7,156.9l4.6-17.6,3.6.9,2.6,8.7c.7,2.4,1.1,4.6,1.4,6.8h0c.4-2.4.9-4.6,1.6-7.1l1.7-6.5,2.8.7-4.6,17.6-3.2-.8-2.5-9c-.6-2.3-1.2-4.8-1.6-7.1h0c-.5,2.4-1.1,4.7-1.8,7.3l-1.8,6.8-2.8-.7Z"/>
      <path class="st1" d="M135.1,158.2c1,.8,2.5,1.6,4.2,1.9,2,.3,3.2-.6,3.4-2,.2-1.3-.5-2.2-2.7-3.3-2.8-1.4-4.5-3.1-4.1-5.9.4-3,3.1-4.9,6.7-4.4,2,.3,3.3.9,4.2,1.5l-1.1,2.6c-.6-.4-1.8-1.2-3.5-1.4-2-.3-3,.7-3.1,1.8-.2,1.4.8,2.2,3,3.3,2.9,1.5,4.2,3.2,3.8,6-.4,2.8-2.6,5.2-7.2,4.6-1.9-.2-3.7-1.1-4.7-1.9l1.1-2.7Z"/>
      <path class="st1" d="M156.2,145.8l-.9,18.2-3.1-.2.9-18.2,3.1.2Z"/>
      <path class="st1" d="M162.4,146.3c1.5-.3,3.4-.5,5.3-.6,3.4-.1,5.8.5,7.5,2,1.7,1.4,2.8,3.5,2.9,6.4.1,3-.8,5.5-2.4,7.2-1.7,1.8-4.6,2.9-8.1,3-2,0-3.4,0-4.6,0l-.7-17.9ZM166.1,161.5c.5,0,1.2,0,2,0,4.5-.2,6.9-2.9,6.8-7.2-.1-4-2.6-6.2-6.9-6-1.2,0-1.9.2-2.4.3l.5,12.8Z"/>
      <path class="st1" d="M194.4,153.3l-6.8,1.1.8,5.1,7.6-1.2.4,2.8-10.6,1.7-2.9-18,10.2-1.6.4,2.8-7.2,1.1.7,4.5,6.8-1.1.4,2.8Z"/>
      <path class="st1" d="M202.1,153.9l-3.5-12,3.2-.8,2.6,12.3-2.2.5ZM202.2,157.8c-.3-1.2.2-2.3,1.3-2.6s2.1.4,2.4,1.7c.3,1.2-.2,2.3-1.3,2.6-1.1.3-2.1-.5-2.4-1.7Z"/>
    </g>
  </g>
  <g>
    <path class="st3" d="M121.2,62.9c-3.5,19.2-34.4,25.2-45.9,19.9-3.2,2-6.4,4.1-9.6,6.1,19.7,18.2,55.2,36.8,87.1,39.1,4.4-7.8,17.5-15.5,28-18.2,10.3-2.6,23.8,1.5,31,7.1,4-1.8,7.7-3.7,11.3-5.6-7.6-8.2-12.8-17.2-14.9-26.4-26.5,5.5-72.8,3.4-86.8-21.9Z"/>
    <path class="st5" d="M180.8,109.8c-10.4,2.7-23.6,10.4-28,18.2,3.1.2,6.1.3,9.1.2,20-.6,36.2-5.2,49.8-11.3-7.1-5.6-20.6-9.7-31-7.1Z"/>
    <path class="st4" d="M146.9,42.6c-5.3.2-11.1,1.3-17.2,3.1-5,1.5-10.3,3.5-15.6,5.8-17.4,7.7-35.8,19.3-51.5,31-.7.5-1.4,1-2,1.5-.7-.7-1.5-1.4-2.2-2-26-23.1-44.1-17.7-44.1-17.7,7.6,1,18.2,6.6,29.2,14.6,3.9,2.8,7.8,5.9,11.6,9.3-2.9,2.2-5.6,4.5-8.2,6.6-9,7.5-35,21.5-35,21.5,4.3-.1,13.4-2.9,30.7-13,5.5-3.2,11.4-6.9,17.4-10.8.3.3.7.6,1,1,21.4,20.1,63.2,44.4,98.6,43.3,32.5-1,49.6-12.3,62.8-20.6,1.1-.7,2.2-1.4,3.3-2.1,18.1-11.7,31-23.5,31.5-23.9-19.9-15.5-58.9-49.3-110.3-47.6ZM211.7,116.9c-13.6,6.1-29.7,10.7-49.8,11.3-3,0-6.1,0-9.1-.2-32-2.3-67.4-20.9-87.1-39.1,3.2-2,6.4-4,9.6-6.1,11.5,5.3,42.4-.7,45.9-19.9,14,25.3,60.4,27.4,86.8,21.9,2.1,9.2,7.3,18.3,14.9,26.4-3.6,1.9-7.3,3.8-11.3,5.6ZM228.8,97.8c-.2,0-.4,0-.5,0s0,0-.1,0c-.1,0-.2,0-.4,0-.1,0-.3,0-.4,0-.1,0-.2,0-.4,0-.1,0-.3,0-.4,0-.1,0-.2,0-.3,0-.1,0-.3,0-.4-.1-.1,0-.2,0-.3-.1-.1,0-.2,0-.4-.2-.1,0-.2,0-.3-.1-.1,0-.2-.1-.4-.2-.1,0-.2-.1-.3-.2-.1,0-.2-.1-.3-.2,0,0-.2-.1-.3-.2-.1,0-.2-.2-.3-.3,0,0-.2-.1-.3-.2,0,0-.2-.2-.3-.3,0,0-.2-.2-.2-.2,0-.1-.2-.2-.3-.3,0,0-.1-.2-.2-.3,0-.1-.2-.2-.2-.3,0,0-.1-.2-.2-.3,0-.1-.1-.2-.2-.4,0,0-.1-.2-.2-.3,0-.1-.1-.3-.2-.4,0,0,0-.2-.1-.3,0-.1,0-.3-.1-.4,0,0,0-.2,0-.3,0-.2,0-.3-.1-.5,0,0,0-.2,0-.3,0-.3,0-.5,0-.8-.3-4.4,3-8.2,7.4-8.4.2,0,.4,0,.5,0s0,0,.1,0c.1,0,.2,0,.4,0,.1,0,.3,0,.4,0,.1,0,.2,0,.4,0,.1,0,.3,0,.4,0,.1,0,.2,0,.3,0,.1,0,.3,0,.4.1.1,0,.2,0,.3.1.1,0,.3,0,.4.2.1,0,.2,0,.3.1.1,0,.2.1.4.2.1,0,.2.1.3.2.1,0,.2.1.3.2,0,0,.2.1.3.2.1,0,.2.2.3.3,0,0,.2.1.3.2,0,0,.2.2.3.3,0,0,.2.2.2.2,0,.1.2.2.3.3,0,0,.1.2.2.3,0,.1.2.2.2.3,0,0,.1.2.2.3,0,.1.1.2.2.4,0,0,.1.2.2.3,0,.1.1.3.2.4,0,.1,0,.2.1.3,0,.1,0,.3.1.4,0,0,0,.2,0,.3,0,.2,0,.3.1.5,0,0,0,.2,0,.3,0,.3,0,.5,0,.8.3,4.4-3,8.2-7.4,8.4Z"/>
    <path class="st0" d="M222.2,94.9c0,0-.1-.2-.2-.3,0,0,.1.2.2.3Z"/>
    <path class="st0" d="M220.8,92.2c0,0,0-.2,0-.3,0,.1,0,.2,0,.3Z"/>
    <path class="st0" d="M220.6,91.4c0,0,0-.2,0-.3,0,0,0,.2,0,.3Z"/>
    <path class="st0" d="M221.8,94.3c0,0-.1-.2-.2-.3,0,0,.1.2.2.3Z"/>
    <path class="st0" d="M228.2,97.8c-.1,0-.2,0-.4,0,.1,0,.2,0,.4,0Z"/>
    <path class="st0" d="M228.5,81.9c.1,0,.2,0,.4,0-.1,0-.2,0-.4,0Z"/>
    <path class="st0" d="M221.4,93.6c0,0-.1-.2-.2-.3,0,.1.1.2.2.3Z"/>
    <path class="st0" d="M221,92.9c0,0,0-.2-.1-.3,0,.1,0,.2.1.3Z"/>
    <path class="st0" d="M234.9,85.4c0,0,.1.2.2.3,0,0-.1-.2-.2-.3Z"/>
    <path class="st0" d="M234.5,84.8c0,0,.1.2.2.3,0,0-.1-.2-.2-.3Z"/>
    <path class="st0" d="M231.5,82.6c.1,0,.2,0,.3.1-.1,0-.2,0-.3-.1Z"/>
    <path class="st0" d="M233.4,83.7c0,0,.2.1.3.2,0,0-.2-.2-.3-.2Z"/>
    <path class="st0" d="M232.2,82.9c.1,0,.2.1.3.2,0,0-.2-.1-.3-.2Z"/>
    <path class="st0" d="M230,82.1c.1,0,.2,0,.3,0-.1,0-.2,0-.3,0Z"/>
    <path class="st0" d="M233.9,84.2c0,0,.2.2.2.2,0,0-.2-.2-.2-.2Z"/>
    <path class="st0" d="M230.8,82.3c.1,0,.2,0,.3.1-.1,0-.2,0-.3-.1Z"/>
    <path class="st0" d="M229.3,82c.1,0,.2,0,.4,0-.1,0-.2,0-.4,0Z"/>
    <path class="st0" d="M224.5,96.8c-.1,0-.2-.1-.3-.2,0,0,.2.1.3.2Z"/>
    <path class="st0" d="M225.9,97.4c-.1,0-.2,0-.3-.1.1,0,.2,0,.3.1Z"/>
    <path class="st0" d="M236.1,88.3c0,0,0,.2,0,.3,0,0,0-.2,0-.3Z"/>
    <path class="st0" d="M232.8,83.3c0,0,.2.1.3.2,0,0-.2-.1-.3-.2Z"/>
    <path class="st0" d="M225.2,97.1c-.1,0-.2,0-.3-.1.1,0,.2,0,.3.1Z"/>
    <path class="st0" d="M227.4,97.7c-.1,0-.2,0-.4,0,.1,0,.2,0,.4,0Z"/>
    <path class="st0" d="M228.3,84.1c-.1,0-.3,0-.4,0-1.5,0-2.9.8-3.9,1.9-1,1.2-1.5,2.6-1.4,4.2.2,3,2.7,5.4,5.7,5.4s.3,0,.4,0c1.5,0,2.9-.8,3.9-1.9,1-1.2,1.5-2.6,1.4-4.2-.2-3-2.7-5.4-5.7-5.4ZM228.6,93.6c-2.1.1-3.8-1.4-4-3.5s1.4-3.8,3.5-4c2.1-.1,3.8,1.4,4,3.5.1,2.1-1.4,3.8-3.5,4Z"/>
    <path class="st0" d="M226.6,97.6c-.1,0-.2,0-.3,0,.1,0,.2,0,.3,0Z"/>
    <path class="st0" d="M235.9,87.5c0,0,0,.2,0,.3,0-.1,0-.2,0-.3Z"/>
    <path class="st0" d="M235.6,86.7c0,.1,0,.2.1.3,0-.1,0-.2-.1-.3Z"/>
    <path class="st0" d="M235.3,86c0,0,.1.2.2.3,0-.1-.1-.2-.2-.3Z"/>
    <path class="st0" d="M222.7,95.4c0,0-.2-.2-.2-.2,0,0,.2.2.2.2Z"/>
    <path class="st0" d="M223.3,95.9c0,0-.2-.1-.3-.2,0,0,.2.2.3.2Z"/>
    <path class="st0" d="M223.9,96.4c0,0-.2-.1-.3-.2,0,0,.2.1.3.2Z"/>
    <path class="st2" d="M236.3,89.3c0-.3,0-.5,0-.8,0,0,0-.2,0-.3,0-.2,0-.3-.1-.5,0,0,0-.2,0-.3,0-.1,0-.3-.1-.4,0-.1,0-.2-.1-.3,0-.1-.1-.3-.2-.4,0-.1-.1-.2-.2-.3,0-.1-.1-.2-.2-.4,0,0-.1-.2-.2-.3,0-.1-.2-.2-.2-.3,0,0-.1-.2-.2-.3,0-.1-.2-.2-.3-.3,0,0-.2-.2-.2-.2,0,0-.2-.2-.3-.3,0,0-.2-.2-.3-.2-.1,0-.2-.2-.3-.3,0,0-.2-.1-.3-.2-.1,0-.2-.1-.3-.2,0,0-.2-.1-.3-.2-.1,0-.2-.1-.4-.2-.1,0-.2,0-.3-.1-.1,0-.2-.1-.4-.2-.1,0-.2,0-.3-.1-.1,0-.3,0-.4-.1-.1,0-.2,0-.3,0-.1,0-.3,0-.4,0-.1,0-.2,0-.4,0-.1,0-.3,0-.4,0-.1,0-.2,0-.4,0,0,0,0,0-.1,0-.2,0-.3,0-.5,0-4.4.3-7.7,4.1-7.4,8.4,0,.3,0,.5,0,.8,0,0,0,.2,0,.3,0,.2,0,.3.1.5,0,.1,0,.2,0,.3,0,.1,0,.3.1.4,0,.1,0,.2.1.3,0,.1.1.3.2.4,0,.1.1.2.2.3,0,.1.1.2.2.4,0,0,.1.2.2.3,0,.1.2.2.2.3,0,0,.1.2.2.3,0,.1.2.2.3.3,0,0,.2.2.2.2,0,0,.2.2.3.3,0,0,.2.2.3.2.1,0,.2.2.3.3,0,0,.2.1.3.2.1,0,.2.1.3.2,0,0,.2.1.3.2.1,0,.2.1.4.2.1,0,.2,0,.3.1.1,0,.2.1.4.2.1,0,.2,0,.3.1.1,0,.3,0,.4.1.1,0,.2,0,.3,0,.1,0,.3,0,.4,0,.1,0,.2,0,.4,0,.1,0,.3,0,.4,0,.1,0,.2,0,.4,0,0,0,0,0,.1,0,.2,0,.3,0,.5,0,4.4-.3,7.7-4.1,7.4-8.4ZM232.7,93.6c-1,1.2-2.4,1.8-3.9,1.9-.1,0-.3,0-.4,0-3,0-5.5-2.4-5.7-5.4,0-1.5.4-3,1.4-4.2,1-1.2,2.4-1.8,3.9-1.9.1,0,.3,0,.4,0,3,0,5.5,2.4,5.7,5.4,0,1.5-.4,3-1.4,4.2Z"/>
    <path d="M228.1,86.1c-2.1.1-3.6,1.9-3.5,4s1.9,3.6,4,3.5c2.1-.1,3.6-1.9,3.5-4-.1-2.1-1.9-3.6-4-3.5Z"/>
  </g>
</svg>