<?xml version="1.0" encoding="UTF-8"?>
<svg id="Layer_1" xmlns="http://www.w3.org/2000/svg" version="1.1" viewBox="0 0 273.3 109.8">
  <!-- Generator: Adobe Illustrator 29.2.1, SVG Export Plug-In . SVG Version: 2.1.0 Build 116)  -->
  <defs>
    <style>
      .st0 {
        fill: #f0657e;
      }

      .st1 {
        fill: #fff;
      }

      .st2 {
        fill: none;
      }

      .st3 {
        fill: #a7b6bf;
      }

      .st4 {
        fill: #f16682;
      }
    </style>
  </defs>
  <path class="st2" d="M121.8,29.8c-3.5,19.2-34.4,25.2-45.9,19.9-3.2,2-6.4,4.1-9.6,6.1,19.7,18.2,55.2,36.8,87.1,39.1,4.4-7.8,17.5-15.5,28-18.2,10.3-2.6,23.8,1.5,31,7.1,4-1.8,7.7-3.6,11.3-5.6-7.6-8.2-12.8-17.2-14.9-26.4-26.5,5.5-72.8,3.4-86.8-21.9Z"/>
  <path class="st4" d="M181.4,76.6c-10.4,2.7-23.6,10.4-28,18.2,3.1.2,6.1.3,9.1.2,20-.6,36.2-5.2,49.8-11.3-7.1-5.6-20.6-9.7-31-7.1Z"/>
  <path class="st3" d="M147.6,9.4c-5.3.2-11.1,1.3-17.2,3.1-5,1.5-10.3,3.5-15.6,5.8-17.4,7.7-35.8,19.3-51.5,31-.7.5-1.4,1-2,1.5-.7-.7-1.5-1.4-2.2-2C32.9,25.8,14.9,31.1,14.9,31.1c7.6,1,18.2,6.6,29.2,14.6,3.9,2.8,7.8,5.9,11.6,9.3-2.9,2.2-5.6,4.5-8.2,6.6-9,7.5-35,21.5-35,21.5,4.3-.1,13.4-2.9,30.7-13,5.5-3.2,11.4-6.9,17.4-10.8.3.3.7.6,1,1,21.4,20.1,63.2,44.4,98.6,43.3,32.5-1,49.6-12.3,62.8-20.6,1.1-.7,2.2-1.4,3.3-2.1,18.1-11.7,31-23.5,31.5-23.9-19.9-15.5-58.9-49.3-110.3-47.6ZM212.3,83.7c-13.6,6.1-29.7,10.7-49.8,11.3-3,0-6.1,0-9.1-.2-32-2.3-67.4-20.9-87.1-39.1,3.2-2,6.4-4,9.6-6.1,11.5,5.3,42.4-.7,45.9-19.9,14,25.3,60.4,27.4,86.8,21.9,2.1,9.2,7.3,18.3,14.9,26.4-3.6,1.9-7.3,3.8-11.3,5.6ZM235.4,61.3c-1.3,1.9-3.5,3.1-5.9,3.3-.2,0-.4,0-.5,0s0,0-.1,0c-.1,0-.2,0-.4,0-.1,0-.3,0-.4,0-.1,0-.2,0-.4,0-.1,0-.3,0-.4,0-.1,0-.2,0-.3,0-.1,0-.3,0-.4-.1-.1,0-.2,0-.3-.1-.1,0-.2,0-.4-.2-.1,0-.2,0-.3-.1-.1,0-.2-.1-.4-.2-.1,0-.2-.1-.3-.2-.1,0-.2-.1-.3-.2,0,0-.2-.1-.3-.2-.1,0-.2-.2-.3-.3,0,0-.2-.1-.3-.2,0,0-.2-.2-.3-.3,0,0-.2-.2-.2-.2,0-.1-.2-.2-.3-.3,0,0-.1-.2-.2-.3,0-.1-.2-.2-.2-.3,0,0-.1-.2-.2-.3,0-.1-.1-.2-.2-.4,0,0-.1-.2-.2-.3,0-.1-.1-.3-.2-.4,0,0,0-.2-.1-.3,0-.1,0-.3-.1-.4,0,0,0-.2,0-.3,0-.2,0-.3-.1-.5,0,0,0-.2,0-.3,0-.3,0-.5,0-.8,0-.5,0-1.1,0-1.6,0-.5.2-1,.4-1.5.6-1.7,1.8-3.2,3.3-4.1.4-.3.9-.5,1.4-.7.7-.3,1.5-.5,2.3-.5,0,0,0,0,0,0,.2,0,.3,0,.5,0s0,0,.1,0c.1,0,.2,0,.4,0,.1,0,.3,0,.4,0,.1,0,.2,0,.4,0,.1,0,.3,0,.4,0,.1,0,.2,0,.3,0,.1,0,.3,0,.4.1.1,0,.2,0,.3.1.1,0,.3,0,.4.2.1,0,.2,0,.3.1.1,0,.2.1.4.2.1,0,.2.1.3.2.1,0,.2.1.3.2,0,0,.2.1.3.2.1,0,.2.2.3.3,0,0,.2.1.3.2.1,0,.2.2.3.3,0,0,.2.2.2.2,0,.1.2.2.3.3,0,0,.1.2.2.3,0,.1.2.2.2.3,0,0,.1.2.2.3,0,.1.1.2.2.4,0,0,.1.2.2.3,0,.1.1.3.2.4,0,0,0,.2.1.3,0,.1,0,.3.1.4,0,0,0,.2,0,.3,0,.2,0,.3.1.5,0,0,0,.2,0,.3,0,.3,0,.5,0,.8,0,1.1,0,2.2-.4,3.1-.3.7-.6,1.4-1.1,2Z"/>
  <path class="st0" d="M228,64.6c-.1,0-.2,0-.4,0,.1,0,.2,0,.4,0Z"/>
  <path class="st0" d="M229.9,48.8c.1,0,.2,0,.4,0-.1,0-.2,0-.4,0Z"/>
  <path class="st0" d="M230.7,48.9c.1,0,.2,0,.3,0-.1,0-.2,0-.3,0Z"/>
  <path class="st0" d="M236.7,55.1c0,0,0,.2,0,.3,0,0,0-.2,0-.3Z"/>
  <path class="st0" d="M231.4,49.1c.1,0,.2,0,.3.1-.1,0-.2,0-.3-.1Z"/>
  <path class="st0" d="M236.5,54.3c0,0,0,.2,0,.3,0,0,0-.2,0-.3Z"/>
  <path class="st0" d="M221.1,55.6c0-.5.2-1,.4-1.5-.2.5-.3,1-.4,1.5Z"/>
  <path class="st0" d="M221.2,58.3c0,0,0-.2,0-.3,0,0,0,.2,0,.3Z"/>
  <path class="st0" d="M229.1,48.8c.1,0,.2,0,.4,0-.1,0-.2,0-.4,0Z"/>
  <path class="st0" d="M224.7,50c.4-.3.9-.5,1.4-.7-.5.2-.9.4-1.4.7Z"/>
  <path class="st0" d="M234,50.6c0,0,.2.1.3.2,0,0-.2-.1-.3-.2Z"/>
  <path class="st0" d="M234.6,51.1c0,0,.2.2.2.2,0,0-.2-.2-.2-.2Z"/>
  <path class="st0" d="M235.5,52.2c0,0,.1.2.2.3,0,0-.1-.2-.2-.3Z"/>
  <path class="st0" d="M235.1,51.6c0,0,.1.2.2.3,0,0-.1-.2-.2-.3Z"/>
  <path class="st0" d="M235.9,52.9c0,0,.1.2.2.3,0,0-.1-.2-.2-.3Z"/>
  <path class="st0" d="M232.1,49.4c.1,0,.2,0,.3.1-.1,0-.2,0-.3-.1Z"/>
  <path class="st0" d="M232.8,49.7c.1,0,.2.1.3.2,0,0-.2-.1-.3-.2Z"/>
  <path class="st0" d="M221.4,59.1c0,0,0-.2,0-.3,0,0,0,.2,0,.3Z"/>
  <path class="st0" d="M233.4,50.1c0,0,.2.1.3.2,0,0-.2-.1-.3-.2Z"/>
  <path class="st0" d="M225.8,64c-.1,0-.2,0-.3-.1.1,0,.2,0,.3.1Z"/>
  <path class="st0" d="M223.9,62.8c0,0-.2-.1-.3-.2,0,0,.2.2.3.2Z"/>
  <path class="st0" d="M224.5,63.3c0,0-.2-.1-.3-.2,0,0,.2.1.3.2Z"/>
  <path class="st0" d="M223.3,62.3c0,0-.2-.2-.2-.2,0,0,.2.2.2.2Z"/>
  <path class="st0" d="M236.3,53.6c0,0,0,.2.1.3,0-.1,0-.2-.1-.3Z"/>
  <path class="st0" d="M222.8,61.7c0,0-.1-.2-.2-.3,0,0,.1.2.2.3Z"/>
  <path class="st0" d="M234.4,56.3c-.2-2.9-2.6-5.1-5.4-5.1-.1,0-.2,0-.4,0-1.5,0-2.8.8-3.8,1.8-1,1.1-1.4,2.5-1.3,4,.2,2.9,2.6,5.1,5.4,5.1s.2,0,.4,0c3-.2,5.3-2.8,5.1-5.8ZM229.2,60.4c-2.1.1-3.8-1.4-4-3.5-.1-2.1,1.4-3.8,3.5-4,2.1-.1,3.8,1.4,4,3.5.1,2.1-1.4,3.8-3.5,4Z"/>
  <path class="st0" d="M227.2,64.4c-.1,0-.2,0-.3,0,.1,0,.2,0,.3,0Z"/>
  <path class="st0" d="M226.5,64.2c-.1,0-.2,0-.3-.1.1,0,.2,0,.3.1Z"/>
  <path class="st0" d="M225.1,63.6c-.1,0-.2-.1-.3-.2,0,0,.2.1.3.2Z"/>
  <path class="st0" d="M228.4,48.8s0,0,0,0c-.8,0-1.6.2-2.3.5.7-.3,1.5-.5,2.3-.5,0,0,0,0,0,0Z"/>
  <path class="st0" d="M221.7,59.8c0,0,0-.2-.1-.3,0,.1,0,.2.1.3Z"/>
  <path class="st0" d="M222,60.5c0,0-.1-.2-.2-.3,0,0,.1.2.2.3Z"/>
  <path class="st0" d="M228.8,64.6c-.1,0-.2,0-.4,0,.1,0,.2,0,.4,0Z"/>
  <path class="st0" d="M222.4,61.1c0,0-.1-.2-.2-.3,0,0,.1.2.2.3Z"/>
  <path class="st1" d="M236.9,56.2c0-.3,0-.5,0-.8,0,0,0-.2,0-.3,0-.2,0-.3-.1-.5,0,0,0-.2,0-.3,0-.1,0-.3-.1-.4,0-.1,0-.2-.1-.3,0-.1-.1-.3-.2-.4,0,0-.1-.2-.2-.3,0-.1-.1-.2-.2-.4,0,0-.1-.2-.2-.3,0-.1-.2-.2-.2-.3,0,0-.1-.2-.2-.3,0-.1-.2-.2-.3-.3,0,0-.2-.2-.2-.2,0,0-.2-.2-.3-.3,0,0-.2-.1-.3-.2-.1,0-.2-.2-.3-.3,0,0-.2-.1-.3-.2-.1,0-.2-.2-.3-.2,0,0-.2-.1-.3-.2-.1,0-.2-.1-.4-.2-.1,0-.2,0-.3-.1-.1,0-.2-.1-.4-.2-.1,0-.2,0-.3-.1-.1,0-.3,0-.4-.1-.1,0-.2,0-.3,0-.1,0-.3,0-.4,0-.1,0-.2,0-.4,0-.1,0-.3,0-.4,0-.1,0-.2,0-.4,0,0,0,0,0-.1,0-.2,0-.3,0-.5,0,0,0,0,0,0,0-.8,0-1.6.2-2.3.5-.5.2-.9.4-1.4.7-1.5,1-2.7,2.4-3.3,4.1-.2.5-.3,1-.4,1.5,0,.5,0,1.1,0,1.6,0,.3,0,.5,0,.8,0,0,0,.2,0,.3,0,.2,0,.3.1.5,0,0,0,.2,0,.3,0,.1,0,.3.1.4,0,.1,0,.2.1.3,0,.1.1.3.2.4,0,0,.1.2.2.3,0,.1.1.2.2.4,0,0,.1.2.2.3,0,.1.2.2.2.3,0,0,.1.2.2.3,0,.1.2.2.3.3,0,0,.2.2.2.2,0,0,.2.2.3.3,0,0,.2.2.3.2.1,0,.2.2.3.3,0,0,.2.1.3.2.1,0,.2.1.3.2,0,0,.2.1.3.2.1,0,.2.1.4.2.1,0,.2,0,.3.1.1,0,.2.1.4.2.1,0,.2,0,.3.1.1,0,.3,0,.4.1.1,0,.2,0,.3,0,.1,0,.3,0,.4,0,.1,0,.2,0,.4,0,.1,0,.3,0,.4,0,.1,0,.2,0,.4,0,0,0,0,0,.1,0,.2,0,.3,0,.5,0,2.5-.2,4.6-1.4,5.9-3.3.4-.6.8-1.3,1.1-2,.3-1,.5-2,.4-3.1ZM229.3,62.1c-.1,0-.2,0-.4,0-2.9,0-5.3-2.2-5.4-5.1,0-1.5.4-2.9,1.3-4,1-1.1,2.3-1.8,3.8-1.8.1,0,.2,0,.4,0,2.9,0,5.3,2.2,5.4,5.1.2,3-2.1,5.6-5.1,5.8Z"/>
  <path d="M228.7,53c-2.1.1-3.6,1.9-3.5,4,.1,2.1,1.9,3.6,4,3.5,2.1-.1,3.6-1.9,3.5-4-.1-2.1-1.9-3.6-4-3.5Z"/>
</svg>