<?xml version="1.0" encoding="UTF-8"?>
<svg id="Layer_1" xmlns="http://www.w3.org/2000/svg" version="1.1" viewBox="0 0 273.3 175.3">
  <!-- Generator: Adobe Illustrator 29.2.1, SVG Export Plug-In . SVG Version: 2.1.0 Build 116)  -->
  <defs>
    <style>
      .st0 {
        fill: #f0657e;
      }

      .st1 {
        fill: #fff;
      }

      .st2 {
        fill: none;
      }

      .st3 {
        fill: #a7b6bf;
      }

      .st4 {
        fill: #f16682;
      }
    </style>
  </defs>
  <path class="st2" d="M123.5,66.4c-3.5,19.2-34.4,25.2-45.9,19.9-3.2,2-6.4,4.1-9.6,6.1,19.7,18.2,55.2,36.8,87.1,39.1,4.4-7.8,17.5-15.5,28-18.2,10.3-2.6,23.8,1.5,31,7.1,4-1.8,7.7-3.7,11.3-5.6-7.6-8.2-12.8-17.2-14.9-26.4-26.5,5.5-72.8,3.4-86.8-21.9Z"/>
  <path class="st2" d="M122.6,26.7c-.7-1.2-1.6-2.8-2.4-4h0c0,1.5.1,3.2.1,4.7v4.4c0,0,4.6-1.2,4.6-1.2l-2.3-3.8Z"/>
  <path class="st2" d="M74.1,46.9c-.8-1.1-2.2-1.1-4,.2-1,.7-1.4,1.1-1.7,1.5l2.6,3.5,1.1-.8c2.4-1.7,2.9-3.2,2-4.4Z"/>
  <path class="st2" d="M97.9,33.9c-.8-1.6-2.3-1.9-4.3-1-1.3.6-1.8,1-2.1,1.2l2.4,5,1.7-.8c2.2-1.1,3.1-2.7,2.3-4.3Z"/>
  <path class="st2" d="M78.8,59.2c1.8-1.3,2.7-3.1,1.5-4.8-1.2-1.6-3.1-1.1-5.2.4l-1.3,1,3.3,4.5c.4-.2.9-.6,1.7-1.1Z"/>
  <path class="st4" d="M183.1,113.3c-10.4,2.7-23.6,10.4-28,18.2,3.1.2,6.1.3,9.1.2,20-.6,36.2-5.2,49.8-11.3-7.1-5.6-20.6-9.7-31-7.1Z"/>
  <path class="st3" d="M149.3,46.1c-5.3.2-11.1,1.3-17.2,3.1-5,1.5-10.3,3.5-15.6,5.8-17.4,7.7-35.8,19.3-51.5,31-.7.5-1.4,1-2,1.5-.7-.7-1.5-1.4-2.2-2-26-23.1-44.1-17.7-44.1-17.7,7.6,1,18.2,6.6,29.2,14.6,3.9,2.8,7.8,5.9,11.6,9.3-2.9,2.2-5.6,4.5-8.2,6.6-9,7.5-35,21.5-35,21.5,4.3-.1,13.4-2.9,30.7-13,5.5-3.2,11.4-6.9,17.4-10.8.3.3.7.6,1,1,21.4,20.1,63.2,44.4,98.6,43.3,32.5-1,49.6-12.3,62.8-20.6,1.1-.7,2.2-1.4,3.3-2.1,18.1-11.7,31-23.5,31.5-23.9-19.9-15.5-58.9-49.3-110.3-47.6ZM214,120.4c-13.6,6.1-29.7,10.7-49.8,11.3-3,0-6.1,0-9.1-.2-32-2.3-67.4-20.9-87.1-39.1,3.2-2,6.4-4,9.6-6.1,11.5,5.3,42.4-.7,45.9-19.9,14,25.3,60.4,27.4,86.8,21.9,2.1,9.2,7.3,18.3,14.9,26.4-3.6,1.9-7.3,3.8-11.3,5.6ZM231.2,101.3c-.2,0-.4,0-.5,0s0,0-.1,0c-.1,0-.2,0-.4,0-.1,0-.3,0-.4,0-.1,0-.2,0-.4,0-.1,0-.3,0-.4,0-.1,0-.2,0-.3,0-.1,0-.3,0-.4-.1-.1,0-.2,0-.3-.1-.1,0-.2,0-.4-.2-.1,0-.2,0-.3-.1-.1,0-.2-.1-.4-.2-.1,0-.2-.1-.3-.2-.1,0-.2-.1-.3-.2,0,0-.2-.1-.3-.2-.1,0-.2-.2-.3-.3,0,0-.2-.1-.3-.2,0,0-.2-.2-.3-.3,0,0-.2-.2-.2-.2,0-.1-.2-.2-.3-.3,0,0-.1-.2-.2-.3,0-.1-.2-.2-.2-.3,0,0-.1-.2-.2-.3,0-.1-.1-.2-.2-.4,0,0-.1-.2-.2-.3,0-.1-.1-.3-.2-.4,0,0,0-.2-.1-.3,0-.1,0-.3-.1-.4,0,0,0-.2,0-.3,0-.2,0-.3-.1-.5,0,0,0-.2,0-.3,0-.3,0-.5,0-.8-.3-4.4,3-8.2,7.4-8.4.2,0,.4,0,.5,0s0,0,.1,0c.1,0,.2,0,.4,0,.1,0,.3,0,.4,0,.1,0,.2,0,.4,0,.1,0,.3,0,.4,0,.1,0,.2,0,.3,0,.1,0,.3,0,.4.1.1,0,.2,0,.3.1.1,0,.3,0,.4.2.1,0,.2,0,.3.1.1,0,.2.1.4.2.1,0,.2.1.3.2.1,0,.2.1.3.2,0,0,.2.1.3.2.1,0,.2.2.3.3,0,0,.2.1.3.2,0,0,.2.2.3.3,0,0,.2.2.2.2,0,.1.2.2.3.3,0,0,.1.2.2.3,0,.1.2.2.2.3,0,0,.1.2.2.3,0,.1.1.2.2.4,0,0,.1.2.2.3,0,.1.1.3.2.4,0,.1,0,.2.1.3,0,.1,0,.3.1.4,0,0,0,.2,0,.3,0,.2,0,.3.1.5,0,0,0,.2,0,.3,0,.3,0,.5,0,.8.3,4.4-3,8.2-7.4,8.4Z"/>
  <path class="st0" d="M230.7,87.6c-.1,0-.3,0-.4,0-1.5,0-2.9.8-3.9,1.9-1,1.2-1.5,2.6-1.4,4.2.2,3,2.7,5.4,5.7,5.4s.3,0,.4,0c1.5,0,2.9-.8,3.9-1.9,1-1.2,1.5-2.6,1.4-4.2-.2-3-2.7-5.4-5.7-5.4ZM230.9,97.1c-2.1.1-3.8-1.4-4-3.5s1.4-3.8,3.5-4c2.1-.1,3.8,1.4,4,3.5.1,2.1-1.4,3.8-3.5,4Z"/>
  <path class="st1" d="M238.6,92.9c0-.3,0-.5,0-.8,0,0,0-.2,0-.3,0-.2,0-.3-.1-.5,0-.1,0-.2,0-.3,0-.1,0-.3-.1-.4,0-.1,0-.2-.1-.3,0-.1-.1-.3-.2-.4,0-.1-.1-.2-.2-.3,0-.1-.1-.2-.2-.4,0,0-.1-.2-.2-.3,0-.1-.2-.2-.2-.3,0,0-.1-.2-.2-.3,0-.1-.2-.2-.3-.3,0,0-.2-.2-.2-.2,0,0-.2-.2-.3-.3,0,0-.2-.2-.3-.2-.1,0-.2-.2-.3-.3,0,0-.2-.1-.3-.2-.1,0-.2-.1-.3-.2,0,0-.2-.1-.3-.2-.1,0-.2-.1-.4-.2-.1,0-.2,0-.3-.1-.1,0-.2-.1-.4-.2-.1,0-.2,0-.3-.1-.1,0-.3,0-.4-.1-.1,0-.2,0-.3,0-.1,0-.3,0-.4,0-.1,0-.2,0-.4,0-.1,0-.3,0-.4,0-.1,0-.2,0-.4,0,0,0,0,0-.1,0-.2,0-.3,0-.5,0-4.4.3-7.7,4.1-7.4,8.4,0,.3,0,.5,0,.8,0,0,0,.2,0,.3,0,.2,0,.3.1.5,0,.1,0,.2,0,.3,0,.1,0,.3.1.4,0,.1,0,.2.1.3,0,.1.1.3.2.4,0,.1.1.2.2.3,0,.1.1.2.2.4,0,0,.1.2.2.3,0,.1.2.2.2.3,0,0,.1.2.2.3,0,.1.2.2.3.3,0,0,.2.2.2.2,0,0,.2.2.3.3,0,0,.2.2.3.2.1,0,.2.2.3.3,0,0,.2.1.3.2.1,0,.2.1.3.2,0,0,.2.1.3.2.1,0,.2.1.4.2.1,0,.2,0,.3.1.1,0,.2.1.4.2.1,0,.2,0,.3.1.1,0,.3,0,.4.1.1,0,.2,0,.3,0,.1,0,.3,0,.4,0,.1,0,.2,0,.4,0,.1,0,.3,0,.4,0,.1,0,.2,0,.4,0,0,0,0,0,.1,0,.2,0,.3,0,.5,0,4.4-.3,7.7-4.1,7.4-8.4ZM235,97.2c-1,1.2-2.4,1.8-3.9,1.9-.1,0-.3,0-.4,0-3,0-5.5-2.4-5.7-5.4,0-1.5.4-3,1.4-4.2,1-1.2,2.4-1.8,3.9-1.9.1,0,.3,0,.4,0,3,0,5.5,2.4,5.7,5.4,0,1.5-.4,3-1.4,4.2Z"/>
  <path d="M230.4,89.7c-2.1.1-3.6,1.9-3.5,4s1.9,3.6,4,3.5c2.1-.1,3.6-1.9,3.5-4-.1-2.1-1.9-3.6-4-3.5Z"/>
  <path class="st4" d="M80.2,64.3c4-3,5.9-5.3,6.6-7.4.6-1.9.4-4.1-1-6-1.8-2.4-4.5-3.1-7.2-2.1h0c1.6-2.5,1.3-4.7,0-6.3-1.5-2.1-3.8-2.6-5.8-2.1-1.9.4-3.5,1.3-6.3,3.4-2.4,1.8-4.9,4-5.8,5l14.1,19c1.1-.6,3-1.6,5.4-3.5ZM72,51.3l-1.1.8-2.6-3.5c.3-.3.8-.7,1.7-1.5,1.8-1.3,3.1-1.3,4-.2.9,1.2.3,2.7-2,4.4ZM75.1,54.9c2-1.5,4-2.1,5.2-.4,1.3,1.7.3,3.4-1.5,4.8-.7.6-1.2.9-1.7,1.1l-3.3-4.5,1.3-1Z"/>
  <path class="st4" d="M100,51.4l-3.9-8.1,1-.5c1.9-.9,2.9-.8,4.8,1.5,2.1,2.5,3.3,3.7,4,4.2l5.7-2.8c-.8-.6-3-3.5-4.8-5.4-1.4-1.5-2.9-2.6-4.5-2.5h0c1.2-1.3,2.5-4.2,1-7.1-1.1-2.2-2.6-3.4-4.4-3.7-2.1-.4-4.6.2-8,1.8-3,1.5-5.4,2.9-6.9,4l10.5,21.4,5.6-2.7ZM91.5,34.1c.3-.2.8-.6,2.1-1.2,1.9-.9,3.5-.7,4.3,1,.8,1.6,0,3.2-2.3,4.3l-1.7.8-2.4-5Z"/>
  <path class="st4" d="M120.8,36.7l6.3-1.7,3.1,5.2,6.7-1.8-13.5-21.4-8.3,2.2-.6,25.1,6.4-1.7v-6ZM120.3,27.3c0-1.4-.1-3.2-.1-4.7h0c.7,1.2,1.6,2.8,2.4,4l2.3,3.8-4.5,1.2v-4.4Z"/>
  <path class="st4" d="M138.8,38.3l7.4-.6,1.4-4.2c.5-1.6,1-2.8,1.3-4.2h0c.8,1.3,1.4,2.4,2.3,3.9l2.1,3.8,7.5-.6-8.2-11.8,5.8-12.2-7.4.6-1.2,3.9c-.4,1.4-.7,2.4-1.1,4.1h0c-.7-1.3-1.2-2.4-2-3.8l-2-3.6-7.4.6,7.8,11.3-6.1,12.7Z"/>
  <polygon class="st4" points="182.2 32.3 172 31.6 172.3 27.5 181.4 28.1 181.7 22.7 172.6 22.1 172.9 18.4 182.5 19 182.9 13.6 166.9 12.6 165.4 36.6 181.8 37.7 182.2 32.3"/>
  <path class="st4" d="M194.1,33.3c.8-3.6,1.6-7,2.3-10.6h.1c.5,3.5,1.3,7.1,2,10.1l2.1,8.7,6.7,1.6,5.6-23.5-5.7-1.3-1.5,6.1c-.8,3.2-1.4,6.1-1.9,9.6h0c-.4-3.3-1-6.9-1.7-9.8l-2-7.6-7.7-1.8-5.6,23.5,5.7,1.3,1.5-6.3Z"/>
  <rect x="108.3" y="150" width="18.2" height="3.1" transform="translate(-62.3 218.3) rotate(-72.6)"/>
  <path d="M137.2,153.9c-.5,2.6-.9,4.7-1.2,7.2h0c-.4-2.2-1-4.3-1.8-6.7l-3.1-8.6-3.7-.7-3.6,17.8,2.8.6,1.4-6.8c.5-2.7,1-5,1.3-7.4h0c.5,2.2,1.2,4.7,2,6.9l3.1,8.9,3.2.6,3.6-17.8-2.8-.6-1.3,6.6Z"/>
  <path d="M157.4,159.5c-.3,3.8-1.8,5.5-4.3,5.4-2.3-.2-3.7-2.1-3.4-5.9l.7-10.1-3.1-.2-.7,10c-.4,6.1,2.2,8.7,6.2,8.9,4.3.3,7.3-2.1,7.7-8l.7-10-3.1-.2-.7,10.1Z"/>
  <polygon points="179.2 149 165.6 149.6 165.7 152.4 170.9 152.2 171.6 167.5 174.7 167.4 174 152.1 179.3 151.8 179.2 149"/>
  <rect x="184.9" y="148.1" width="3.1" height="18.2" transform="translate(-18.2 24.5) rotate(-7.2)"/>
  <path d="M197.1,160.7c-1.1.2-1.7,1.2-1.5,2.5.2,1.2,1.2,2,2.3,1.8,1.1-.2,1.7-1.3,1.5-2.5-.3-1.3-1.2-2-2.3-1.8Z"/>
  <polygon points="197.9 158.9 196.1 146.5 192.9 147.1 195.7 159.3 197.9 158.9"/>
</svg>